<?xml version="1.0" encoding="UTF-8"?>
<svg xmlns="http://www.w3.org/2000/svg" version="1.1" viewBox="0 0 240.94 155.91">
  <!-- Generator: Adobe Illustrator 29.6.1, SVG Export Plug-In . SVG Version: 2.1.1 Build 9)  -->
  <defs>
    <style>
      .st0 {
        opacity: .14;
      }

      .st0, .st1 {
        fill: #e6007e;
      }

      .st2 {
        fill: #e8e3da;
      }
    </style>
  </defs>
  <g id="FONDO_TARJETA_GENERAL">
    <rect class="st2" x="-16" y="-12.43" width="273.14" height="181.71"/>
    <path class="st0" d="M53.6,131.96c1.07.05,5.44-8.89,3.5-16.87-2.37-9.72-9.76-14.42-9.92-13.45-.07.39,3.16,5.18,3.94,8.15.78,2.97.69,5.51.69,5.51,0,0-8.25-8.65-15.74-12.55-8.31-4.32-12.59-2.98-14.72-1.49-2.59,1.82-2.55,5.51-2.18,5.82.44.38.95-2.41,4.19-2.58,4.15-.2,12.76,7.31,17.86,12.76,7.58,8.1,11.63,14.68,12.39,14.71"/>
    <path class="st0" d="M19.15,107.9c-1.06-.05-5.44,8.9-3.5,16.87,2.37,9.73,9.76,14.42,9.92,13.45.06-.38-3.16-5.18-3.94-8.14-.78-2.97-.7-5.51-.7-5.51,0,0,8.25,8.65,15.75,12.55,8.31,4.33,12.59,2.98,14.72,1.49,2.59-1.82,2.55-5.51,2.18-5.82-.44-.38-.95,2.42-4.19,2.58-4.15.2-12.76-7.31-17.85-12.76-7.58-8.1-11.64-14.68-12.39-14.71"/>
    <path class="st0" d="M53.58,132.05c1.07.05,5.44-8.89,3.5-16.86-2.37-9.72-9.75-14.41-9.92-13.44-.07.39,3.16,5.18,3.94,8.14.78,2.97.69,5.5.69,5.5,0,0-8.24-8.65-15.73-12.55-8.31-4.32-12.58-2.98-14.71-1.49-2.59,1.81-2.55,5.51-2.18,5.82.44.38.95-2.41,4.19-2.58,4.14-.2,12.75,7.31,17.85,12.75,7.58,8.09,11.63,14.67,12.38,14.7"/>
    <path class="st0" d="M19.16,108.01c-1.06-.05-5.44,8.89-3.5,16.86,2.36,9.72,9.75,14.41,9.92,13.44.06-.39-3.16-5.17-3.94-8.14-.78-2.96-.7-5.5-.7-5.5,0,0,8.24,8.64,15.74,12.54,8.3,4.32,12.58,2.98,14.71,1.49,2.58-1.81,2.55-5.51,2.18-5.82-.44-.38-.95,2.41-4.19,2.58-4.14.2-12.75-7.31-17.84-12.75-7.58-8.09-11.63-14.67-12.39-14.7"/>
    <path class="st0" d="M218.22,48.91c1.07.05,5.44-8.89,3.5-16.87-2.37-9.72-9.76-14.42-9.92-13.45-.07.39,3.16,5.18,3.94,8.15.78,2.97.69,5.51.69,5.51,0,0-8.25-8.65-15.74-12.55-8.31-4.32-12.59-2.98-14.72-1.49-2.59,1.82-2.55,5.51-2.18,5.82.44.38.95-2.41,4.19-2.58,4.15-.2,12.76,7.31,17.86,12.76,7.58,8.1,11.63,14.68,12.39,14.71"/>
    <path class="st0" d="M183.78,24.86c-1.06-.05-5.44,8.9-3.5,16.87,2.37,9.73,9.76,14.42,9.92,13.45.06-.38-3.16-5.18-3.94-8.14-.78-2.97-.7-5.51-.7-5.51,0,0,8.25,8.65,15.75,12.55,8.31,4.33,12.59,2.98,14.72,1.49,2.59-1.82,2.55-5.51,2.18-5.82-.44-.38-.95,2.42-4.19,2.58-4.15.2-12.76-7.31-17.85-12.76-7.58-8.1-11.64-14.68-12.39-14.71"/>
    <path class="st0" d="M218.21,49c1.07.05,5.44-8.89,3.5-16.86-2.37-9.72-9.75-14.41-9.92-13.44-.07.39,3.16,5.18,3.94,8.14.78,2.97.69,5.5.69,5.5,0,0-8.24-8.65-15.73-12.55-8.31-4.32-12.58-2.98-14.71-1.49-2.59,1.81-2.55,5.51-2.18,5.82.44.38.95-2.41,4.19-2.58,4.14-.2,12.75,7.31,17.85,12.75,7.58,8.09,11.63,14.67,12.38,14.7"/>
    <path class="st0" d="M183.78,24.97c-1.06-.05-5.44,8.89-3.5,16.86,2.36,9.72,9.75,14.41,9.92,13.44.06-.39-3.16-5.17-3.94-8.14-.78-2.96-.7-5.5-.7-5.5,0,0,8.24,8.64,15.74,12.54,8.3,4.32,12.58,2.98,14.71,1.49,2.58-1.81,2.55-5.51,2.18-5.82-.44-.38-.95,2.41-4.19,2.58-4.14.2-12.75-7.31-17.84-12.75-7.58-8.09-11.63-14.67-12.39-14.7"/>
    <path class="st0" d="M115.36,64.34c1.07.05,5.44-8.89,3.5-16.87-2.37-9.72-9.76-14.42-9.92-13.45-.07.39,3.16,5.18,3.94,8.15.78,2.97.69,5.51.69,5.51,0,0-8.25-8.65-15.74-12.55-8.31-4.32-12.59-2.98-14.72-1.49-2.59,1.82-2.55,5.51-2.18,5.82.44.38.95-2.41,4.19-2.58,4.15-.2,12.76,7.31,17.86,12.76,7.58,8.1,11.63,14.68,12.39,14.71"/>
    <path class="st0" d="M80.92,40.29c-1.06-.05-5.44,8.9-3.5,16.87,2.37,9.73,9.76,14.42,9.92,13.45.06-.38-3.16-5.18-3.94-8.14-.78-2.97-.7-5.51-.7-5.51,0,0,8.25,8.65,15.75,12.55,8.31,4.33,12.59,2.98,14.72,1.49,2.59-1.82,2.55-5.51,2.18-5.82-.44-.38-.95,2.42-4.19,2.58-4.15.2-12.76-7.31-17.85-12.76-7.58-8.1-11.64-14.68-12.39-14.71"/>
    <path class="st0" d="M115.35,64.43c1.07.05,5.44-8.89,3.5-16.86-2.37-9.72-9.75-14.41-9.92-13.44-.07.39,3.16,5.18,3.94,8.14.78,2.97.69,5.5.69,5.5,0,0-8.24-8.65-15.73-12.55-8.31-4.32-12.58-2.98-14.71-1.49-2.59,1.81-2.55,5.51-2.18,5.82.44.38.95-2.41,4.19-2.58,4.14-.2,12.75,7.31,17.85,12.75,7.58,8.09,11.63,14.67,12.38,14.7"/>
    <path class="st0" d="M80.92,40.39c-1.06-.05-5.44,8.89-3.5,16.86,2.36,9.72,9.75,14.41,9.92,13.44.06-.39-3.16-5.17-3.94-8.14-.78-2.96-.7-5.5-.7-5.5,0,0,8.24,8.64,15.74,12.54,8.3,4.32,12.58,2.98,14.71,1.49,2.58-1.81,2.55-5.51,2.18-5.82-.44-.38-.95,2.41-4.19,2.58-4.14.2-12.75-7.31-17.84-12.75-7.58-8.09-11.63-14.67-12.39-14.7"/>
    <path class="st0" d="M54.51,49.77c1.07.05,5.44-8.89,3.5-16.87-2.37-9.72-9.76-14.42-9.92-13.45-.07.39,3.16,5.18,3.94,8.15.78,2.97.69,5.51.69,5.51,0,0-8.25-8.65-15.74-12.55-8.31-4.32-12.59-2.98-14.72-1.49-2.59,1.82-2.55,5.51-2.18,5.82.44.38.95-2.41,4.19-2.58,4.15-.2,12.76,7.31,17.86,12.76,7.58,8.1,11.63,14.68,12.39,14.71"/>
    <path class="st0" d="M20.06,25.71c-1.06-.05-5.44,8.9-3.5,16.87,2.37,9.73,9.76,14.42,9.92,13.45.06-.38-3.16-5.18-3.94-8.14-.78-2.97-.7-5.51-.7-5.51,0,0,8.25,8.65,15.75,12.55,8.31,4.33,12.59,2.98,14.72,1.49,2.59-1.82,2.55-5.51,2.18-5.82-.44-.38-.95,2.42-4.19,2.58-4.15.2-12.76-7.31-17.85-12.76-7.58-8.1-11.64-14.68-12.39-14.71"/>
    <path class="st0" d="M54.49,49.86c1.07.05,5.44-8.89,3.5-16.86-2.37-9.72-9.75-14.41-9.92-13.44-.07.39,3.16,5.18,3.94,8.14.78,2.97.69,5.5.69,5.5,0,0-8.24-8.65-15.73-12.55-8.31-4.32-12.58-2.98-14.71-1.49-2.59,1.81-2.55,5.51-2.18,5.82.44.38.95-2.41,4.19-2.58,4.14-.2,12.75,7.31,17.85,12.75,7.58,8.09,11.63,14.67,12.38,14.7"/>
    <path class="st0" d="M20.07,25.82c-1.06-.05-5.44,8.89-3.5,16.86,2.36,9.72,9.75,14.41,9.92,13.44.06-.39-3.16-5.17-3.94-8.14-.78-2.96-.7-5.5-.7-5.5,0,0,8.24,8.64,15.74,12.54,8.3,4.32,12.58,2.98,14.71,1.49,2.58-1.81,2.55-5.51,2.18-5.82-.44-.38-.95,2.41-4.19,2.58-4.14.2-12.75-7.31-17.84-12.75-7.58-8.09-11.63-14.67-12.39-14.7"/>
    <path class="st0" d="M219.51,130.77c1.07.05,5.44-8.89,3.5-16.87-2.37-9.72-9.76-14.42-9.92-13.45-.07.39,3.16,5.18,3.94,8.15.78,2.97.69,5.51.69,5.51,0,0-8.25-8.65-15.74-12.55-8.31-4.32-12.59-2.98-14.72-1.49-2.59,1.82-2.55,5.51-2.18,5.82.44.38.95-2.41,4.19-2.58,4.15-.2,12.76,7.31,17.86,12.76,7.58,8.1,11.63,14.68,12.39,14.71"/>
    <path class="st0" d="M185.06,106.71c-1.06-.05-5.44,8.9-3.5,16.87,2.37,9.73,9.76,14.42,9.92,13.45.06-.38-3.16-5.18-3.94-8.14-.78-2.97-.7-5.51-.7-5.51,0,0,8.25,8.65,15.75,12.55,8.31,4.33,12.59,2.98,14.72,1.49,2.59-1.82,2.55-5.51,2.18-5.82-.44-.38-.95,2.42-4.19,2.58-4.15.2-12.76-7.31-17.85-12.76-7.58-8.1-11.64-14.68-12.39-14.71"/>
    <path class="st0" d="M219.49,130.86c1.07.05,5.44-8.89,3.5-16.86-2.37-9.72-9.75-14.41-9.92-13.44-.07.39,3.16,5.18,3.94,8.14.78,2.97.69,5.5.69,5.5,0,0-8.24-8.65-15.73-12.55-8.31-4.32-12.58-2.98-14.71-1.49-2.59,1.81-2.55,5.51-2.18,5.82.44.38.95-2.41,4.19-2.58,4.14-.2,12.75,7.31,17.85,12.75,7.58,8.09,11.63,14.67,12.38,14.7"/>
    <path class="st0" d="M185.07,106.82c-1.06-.05-5.44,8.89-3.5,16.86,2.36,9.72,9.75,14.41,9.92,13.44.06-.39-3.16-5.17-3.94-8.14-.78-2.96-.7-5.5-.7-5.5,0,0,8.24,8.64,15.74,12.54,8.3,4.32,12.58,2.98,14.71,1.49,2.58-1.81,2.55-5.51,2.18-5.82-.44-.38-.95,2.41-4.19,2.58-4.14.2-12.75-7.31-17.84-12.75-7.58-8.09-11.63-14.67-12.39-14.7"/>
    <path class="st0" d="M162.51,116.19c1.07.05,5.44-8.89,3.5-16.87-2.37-9.72-9.76-14.42-9.92-13.45-.07.39,3.16,5.18,3.94,8.15.78,2.97.69,5.51.69,5.51,0,0-8.25-8.65-15.74-12.55-8.31-4.32-12.59-2.98-14.72-1.49-2.59,1.82-2.55,5.51-2.18,5.82.44.38.95-2.41,4.19-2.58,4.15-.2,12.76,7.31,17.86,12.76,7.58,8.1,11.63,14.68,12.39,14.71"/>
    <path class="st0" d="M128.06,92.14c-1.06-.05-5.44,8.9-3.5,16.87,2.37,9.73,9.76,14.42,9.92,13.45.06-.38-3.16-5.18-3.94-8.14-.78-2.97-.7-5.51-.7-5.51,0,0,8.25,8.65,15.75,12.55,8.31,4.33,12.59,2.98,14.72,1.49,2.59-1.82,2.55-5.51,2.18-5.82-.44-.38-.95,2.42-4.19,2.58-4.15.2-12.76-7.31-17.85-12.76-7.58-8.1-11.64-14.68-12.39-14.71"/>
    <path class="st0" d="M162.49,116.29c1.07.05,5.44-8.89,3.5-16.86-2.37-9.72-9.75-14.41-9.92-13.44-.07.39,3.16,5.18,3.94,8.14.78,2.97.69,5.5.69,5.5,0,0-8.24-8.65-15.73-12.55-8.31-4.32-12.58-2.98-14.71-1.49-2.59,1.81-2.55,5.51-2.18,5.82.44.38.95-2.41,4.19-2.58,4.14-.2,12.75,7.31,17.85,12.75,7.58,8.09,11.63,14.67,12.38,14.7"/>
    <path class="st0" d="M128.07,92.25c-1.06-.05-5.44,8.89-3.5,16.86,2.36,9.72,9.75,14.41,9.92,13.44.06-.39-3.16-5.17-3.94-8.14-.78-2.96-.7-5.5-.7-5.5,0,0,8.24,8.64,15.74,12.54,8.3,4.32,12.58,2.98,14.71,1.49,2.58-1.81,2.55-5.51,2.18-5.82-.44-.38-.95,2.41-4.19,2.58-4.14.2-12.75-7.31-17.84-12.75-7.58-8.09-11.63-14.67-12.39-14.7"/>
    <path class="st0" d="M104.62,119.69c.78.03,4-6.53,2.57-12.4-1.74-7.14-7.17-10.59-7.29-9.88-.05.28,2.32,3.81,2.9,5.99.57,2.18.51,4.05.51,4.05,0,0-6.06-6.35-11.57-9.22-6.1-3.18-9.25-2.19-10.81-1.09-1.9,1.33-1.87,4.05-1.6,4.28.32.28.7-1.77,3.08-1.89,3.05-.15,9.37,5.37,13.12,9.37,5.57,5.95,8.55,10.78,9.1,10.8"/>
    <path class="st0" d="M79.31,102.03c-.78-.03-4,6.53-2.57,12.39,1.74,7.15,7.17,10.59,7.29,9.88.05-.28-2.32-3.8-2.9-5.98-.57-2.18-.51-4.04-.51-4.04,0,0,6.06,6.35,11.57,9.22,6.1,3.18,9.25,2.19,10.81,1.09,1.9-1.33,1.87-4.05,1.6-4.28-.32-.28-.7,1.77-3.08,1.89-3.05.15-9.37-5.37-13.12-9.37-5.57-5.95-8.55-10.78-9.1-10.8"/>
    <path class="st0" d="M104.6,119.76c.78.03,4-6.53,2.57-12.39-1.74-7.14-7.16-10.58-7.28-9.88-.05.28,2.32,3.8,2.89,5.98.57,2.18.51,4.04.51,4.04,0,0-6.05-6.35-11.56-9.22-6.1-3.17-9.24-2.19-10.81-1.09-1.9,1.33-1.87,4.05-1.6,4.27.32.28.7-1.77,3.07-1.89,3.04-.15,9.36,5.37,13.11,9.37,5.57,5.94,8.54,10.78,9.1,10.8"/>
    <path class="st0" d="M79.32,102.1c-.78-.03-3.99,6.53-2.57,12.39,1.74,7.14,7.16,10.59,7.28,9.87.05-.28-2.32-3.8-2.89-5.98-.57-2.18-.51-4.04-.51-4.04,0,0,6.06,6.35,11.56,9.21,6.1,3.18,9.24,2.19,10.8,1.09,1.9-1.33,1.87-4.05,1.6-4.27-.32-.28-.7,1.77-3.08,1.89-3.04.15-9.36-5.37-13.11-9.37-5.57-5.95-8.54-10.78-9.1-10.8"/>
    <path class="st0" d="M159.72,43.7c.78.03,4-6.53,2.57-12.4-1.74-7.14-7.17-10.59-7.29-9.88-.05.28,2.32,3.81,2.9,5.99.57,2.18.51,4.05.51,4.05,0,0-6.06-6.35-11.57-9.22-6.1-3.18-9.25-2.19-10.81-1.09-1.9,1.33-1.87,4.05-1.6,4.28.32.28.7-1.77,3.08-1.89,3.05-.15,9.37,5.37,13.12,9.37,5.57,5.95,8.55,10.78,9.1,10.8"/>
    <path class="st0" d="M134.42,26.03c-.78-.03-4,6.53-2.57,12.39,1.74,7.15,7.17,10.59,7.29,9.88.05-.28-2.32-3.8-2.9-5.98-.57-2.18-.51-4.04-.51-4.04,0,0,6.06,6.35,11.57,9.22,6.1,3.18,9.25,2.19,10.81,1.09,1.9-1.33,1.87-4.05,1.6-4.28-.32-.28-.7,1.77-3.08,1.89-3.05.15-9.37-5.37-13.12-9.37-5.57-5.95-8.55-10.78-9.1-10.8"/>
    <path class="st0" d="M159.71,43.77c.78.03,4-6.53,2.57-12.39-1.74-7.14-7.16-10.58-7.28-9.88-.05.28,2.32,3.8,2.89,5.98.57,2.18.51,4.04.51,4.04,0,0-6.05-6.35-11.56-9.22-6.1-3.17-9.24-2.19-10.81-1.09-1.9,1.33-1.87,4.05-1.6,4.27.32.28.7-1.77,3.07-1.89,3.04-.15,9.36,5.37,13.11,9.37,5.57,5.94,8.54,10.78,9.1,10.8"/>
    <path class="st0" d="M134.42,26.11c-.78-.03-3.99,6.53-2.57,12.39,1.74,7.14,7.16,10.59,7.28,9.87.05-.28-2.32-3.8-2.89-5.98-.57-2.18-.51-4.04-.51-4.04,0,0,6.06,6.35,11.56,9.21,6.1,3.18,9.24,2.19,10.8,1.09,1.9-1.33,1.87-4.05,1.6-4.27-.32-.28-.7,1.77-3.08,1.89-3.04.15-9.36-5.37-13.11-9.37-5.57-5.95-8.54-10.78-9.1-10.8"/>
    <path class="st0" d="M126.48,133.2c.39.02,1.97-3.22,1.27-6.11-.86-3.52-3.53-5.22-3.59-4.87-.02.14,1.14,1.87,1.43,2.95.28,1.07.25,1.99.25,1.99,0,0-2.98-3.13-5.7-4.54-3.01-1.56-4.56-1.08-5.33-.54-.94.66-.92,1.99-.79,2.11.16.14.34-.87,1.51-.93,1.5-.07,4.62,2.65,6.46,4.62,2.74,2.93,4.21,5.31,4.48,5.32"/>
    <path class="st0" d="M114.02,124.5c-.39-.02-1.97,3.22-1.27,6.1.86,3.52,3.53,5.22,3.59,4.87.02-.14-1.14-1.87-1.43-2.95-.28-1.07-.25-1.99-.25-1.99,0,0,2.98,3.13,5.7,4.54,3.01,1.57,4.55,1.08,5.32.54.94-.66.92-1.99.79-2.11-.16-.14-.34.87-1.52.93-1.5.07-4.62-2.65-6.46-4.62-2.74-2.93-4.21-5.31-4.48-5.32"/>
    <path class="st0" d="M126.48,133.24c.39.02,1.97-3.22,1.27-6.1-.86-3.52-3.53-5.21-3.59-4.86-.02.14,1.14,1.87,1.42,2.95.28,1.07.25,1.99.25,1.99,0,0-2.98-3.13-5.69-4.54-3.01-1.56-4.55-1.08-5.32-.54-.94.66-.92,1.99-.79,2.11.16.14.34-.87,1.51-.93,1.5-.07,4.61,2.65,6.46,4.61,2.74,2.93,4.21,5.31,4.48,5.32"/>
    <path class="st0" d="M114.02,124.54c-.38-.02-1.97,3.22-1.26,6.1.86,3.52,3.53,5.21,3.59,4.86.02-.14-1.14-1.87-1.43-2.94-.28-1.07-.25-1.99-.25-1.99,0,0,2.98,3.13,5.69,4.54,3,1.56,4.55,1.08,5.32.54.94-.66.92-1.99.79-2.1-.16-.14-.34.87-1.51.93-1.5.07-4.61-2.64-6.46-4.61-2.74-2.93-4.21-5.31-4.48-5.32"/>
    <path class="st0" d="M33.69,83.22c.39.02,1.97-3.22,1.27-6.11-.86-3.52-3.53-5.22-3.59-4.87-.02.14,1.14,1.87,1.43,2.95.28,1.07.25,1.99.25,1.99,0,0-2.98-3.13-5.7-4.54-3.01-1.56-4.56-1.08-5.33-.54-.94.66-.92,1.99-.79,2.11.16.14.34-.87,1.51-.93,1.5-.07,4.62,2.65,6.46,4.62,2.74,2.93,4.21,5.31,4.48,5.32"/>
    <path class="st0" d="M21.22,74.51c-.39-.02-1.97,3.22-1.27,6.1.86,3.52,3.53,5.22,3.59,4.87.02-.14-1.14-1.87-1.43-2.95-.28-1.07-.25-1.99-.25-1.99,0,0,2.98,3.13,5.7,4.54,3.01,1.57,4.55,1.08,5.32.54.94-.66.92-1.99.79-2.11-.16-.14-.34.87-1.52.93-1.5.07-4.62-2.65-6.46-4.62-2.74-2.93-4.21-5.31-4.48-5.32"/>
    <path class="st0" d="M33.68,83.25c.39.02,1.97-3.22,1.27-6.1-.86-3.52-3.53-5.21-3.59-4.86-.02.14,1.14,1.87,1.42,2.95.28,1.07.25,1.99.25,1.99,0,0-2.98-3.13-5.69-4.54-3.01-1.56-4.55-1.08-5.32-.54-.94.66-.92,1.99-.79,2.11.16.14.34-.87,1.51-.93,1.5-.07,4.61,2.65,6.46,4.61,2.74,2.93,4.21,5.31,4.48,5.32"/>
    <path class="st0" d="M21.23,74.55c-.38-.02-1.97,3.22-1.26,6.1.86,3.52,3.53,5.21,3.59,4.86.02-.14-1.14-1.87-1.43-2.94-.28-1.07-.25-1.99-.25-1.99,0,0,2.98,3.13,5.69,4.54,3,1.56,4.55,1.08,5.32.54.94-.66.92-1.99.79-2.1-.16-.14-.34.87-1.51.93-1.5.07-4.61-2.64-6.46-4.61-2.74-2.93-4.21-5.31-4.48-5.32"/>
    <path class="st0" d="M101.05,21.1c.39.02,1.97-3.22,1.27-6.11-.86-3.52-3.53-5.22-3.59-4.87-.02.14,1.14,1.87,1.43,2.95.28,1.07.25,1.99.25,1.99,0,0-2.98-3.13-5.7-4.54-3.01-1.56-4.56-1.08-5.33-.54-.94.66-.92,1.99-.79,2.11.16.14.34-.87,1.51-.93,1.5-.07,4.62,2.65,6.46,4.62,2.74,2.93,4.21,5.31,4.48,5.32"/>
    <path class="st0" d="M88.59,12.39c-.39-.02-1.97,3.22-1.27,6.1.86,3.52,3.53,5.22,3.59,4.87.02-.14-1.14-1.87-1.43-2.95-.28-1.07-.25-1.99-.25-1.99,0,0,2.98,3.13,5.7,4.54,3.01,1.57,4.55,1.08,5.32.54.94-.66.92-1.99.79-2.11-.16-.14-.34.87-1.52.93-1.5.07-4.62-2.65-6.46-4.62-2.74-2.93-4.21-5.31-4.48-5.32"/>
    <path class="st0" d="M101.05,21.13c.39.02,1.97-3.22,1.27-6.1-.86-3.52-3.53-5.21-3.59-4.86-.02.14,1.14,1.87,1.42,2.95.28,1.07.25,1.99.25,1.99,0,0-2.98-3.13-5.69-4.54-3.01-1.56-4.55-1.08-5.32-.54-.94.66-.92,1.99-.79,2.11.16.14.34-.87,1.51-.93,1.5-.07,4.61,2.65,6.46,4.61,2.74,2.93,4.21,5.31,4.48,5.32"/>
    <path class="st0" d="M88.59,12.43c-.38-.02-1.97,3.22-1.26,6.1.86,3.52,3.53,5.21,3.59,4.86.02-.14-1.14-1.87-1.43-2.94-.28-1.07-.25-1.99-.25-1.99,0,0,2.98,3.13,5.69,4.54,3,1.56,4.55,1.08,5.32.54.94-.66.92-1.99.79-2.1-.16-.14-.34.87-1.51.93-1.5.07-4.61-2.64-6.46-4.61-2.74-2.93-4.21-5.31-4.48-5.32"/>
    <path class="st0" d="M221.46,84.66c.39.02,1.97-3.22,1.27-6.11-.86-3.52-3.53-5.22-3.59-4.87-.02.14,1.14,1.87,1.43,2.95.28,1.07.25,1.99.25,1.99,0,0-2.98-3.13-5.7-4.54-3.01-1.56-4.56-1.08-5.33-.54-.94.66-.92,1.99-.79,2.11.16.14.34-.87,1.51-.93,1.5-.07,4.62,2.65,6.46,4.62,2.74,2.93,4.21,5.31,4.48,5.32"/>
    <path class="st0" d="M208.99,75.96c-.39-.02-1.97,3.22-1.27,6.1.86,3.52,3.53,5.22,3.59,4.87.02-.14-1.14-1.87-1.43-2.95-.28-1.07-.25-1.99-.25-1.99,0,0,2.98,3.13,5.7,4.54,3.01,1.57,4.55,1.08,5.32.54.94-.66.92-1.99.79-2.11-.16-.14-.34.87-1.52.93-1.5.07-4.62-2.65-6.46-4.62-2.74-2.93-4.21-5.31-4.48-5.32"/>
    <path class="st0" d="M221.45,84.7c.39.02,1.97-3.22,1.27-6.1-.86-3.52-3.53-5.21-3.59-4.86-.02.14,1.14,1.87,1.42,2.95.28,1.07.25,1.99.25,1.99,0,0-2.98-3.13-5.69-4.54-3.01-1.56-4.55-1.08-5.32-.54-.94.66-.92,1.99-.79,2.11.16.14.34-.87,1.51-.93,1.5-.07,4.61,2.65,6.46,4.61,2.74,2.93,4.21,5.31,4.48,5.32"/>
    <path class="st0" d="M209,76c-.38-.02-1.97,3.22-1.26,6.1.86,3.52,3.53,5.21,3.59,4.86.02-.14-1.14-1.87-1.43-2.94-.28-1.07-.25-1.99-.25-1.99,0,0,2.98,3.13,5.69,4.54,3,1.56,4.55,1.08,5.32.54.94-.66.92-1.99.79-2.1-.16-.14-.34.87-1.51.93-1.5.07-4.61-2.64-6.46-4.61-2.74-2.93-4.21-5.31-4.48-5.32"/>
    <path class="st0" d="M169.72,146.69c.39.02,1.97-3.22,1.27-6.11-.86-3.52-3.53-5.22-3.59-4.87-.02.14,1.14,1.87,1.43,2.95.28,1.07.25,1.99.25,1.99,0,0-2.98-3.13-5.7-4.54-3.01-1.56-4.56-1.08-5.33-.54-.94.66-.92,1.99-.79,2.11.16.14.34-.87,1.51-.93,1.5-.07,4.62,2.65,6.46,4.62,2.74,2.93,4.21,5.31,4.48,5.32"/>
    <path class="st0" d="M157.25,137.99c-.39-.02-1.97,3.22-1.27,6.1.86,3.52,3.53,5.22,3.59,4.87.02-.14-1.14-1.87-1.43-2.95-.28-1.07-.25-1.99-.25-1.99,0,0,2.98,3.13,5.7,4.54,3.01,1.57,4.55,1.08,5.32.54.94-.66.92-1.99.79-2.11-.16-.14-.34.87-1.52.93-1.5.07-4.62-2.65-6.46-4.62-2.74-2.93-4.21-5.31-4.48-5.32"/>
    <path class="st0" d="M169.71,146.73c.39.02,1.97-3.22,1.27-6.1-.86-3.52-3.53-5.21-3.59-4.86-.02.14,1.14,1.87,1.42,2.95.28,1.07.25,1.99.25,1.99,0,0-2.98-3.13-5.69-4.54-3.01-1.56-4.55-1.08-5.32-.54-.94.66-.92,1.99-.79,2.11.16.14.34-.87,1.51-.93,1.5-.07,4.61,2.65,6.46,4.61,2.74,2.93,4.21,5.31,4.48,5.32"/>
    <path class="st0" d="M157.26,138.03c-.38-.02-1.97,3.22-1.26,6.1.86,3.52,3.53,5.21,3.59,4.86.02-.14-1.14-1.87-1.43-2.94-.28-1.07-.25-1.99-.25-1.99,0,0,2.98,3.13,5.69,4.54,3,1.56,4.55,1.08,5.32.54.94-.66.92-1.99.79-2.1-.16-.14-.34.87-1.51.93-1.5.07-4.61-2.64-6.46-4.61-2.74-2.93-4.21-5.31-4.48-5.32"/>
    <rect class="st2" x="78.86" y="7.14" width="30.14" height="6.86"/>
    <rect class="st2" x="153.43" y="141.71" width="30.14" height="8.43"/>
    <path class="st0" d="M85.08,140.47c.39.02,1.97-3.22,1.27-6.11-.86-3.52-3.53-5.22-3.59-4.87-.02.14,1.14,1.87,1.43,2.95.28,1.07.25,1.99.25,1.99,0,0-2.98-3.13-5.7-4.54-3.01-1.56-4.56-1.08-5.33-.54-.94.66-.92,1.99-.79,2.11.16.14.34-.87,1.51-.93,1.5-.07,4.62,2.65,6.46,4.62,2.74,2.93,4.21,5.31,4.48,5.32"/>
    <path class="st0" d="M72.62,131.76c-.39-.02-1.97,3.22-1.27,6.1.86,3.52,3.53,5.22,3.59,4.87.02-.14-1.14-1.87-1.43-2.95-.28-1.07-.25-1.99-.25-1.99,0,0,2.98,3.13,5.7,4.54,3.01,1.57,4.55,1.08,5.32.54.94-.66.92-1.99.79-2.11-.16-.14-.34.87-1.52.93-1.5.07-4.62-2.65-6.46-4.62-2.74-2.93-4.21-5.31-4.48-5.32"/>
    <path class="st0" d="M85.08,140.5c.39.02,1.97-3.22,1.27-6.1-.86-3.52-3.53-5.21-3.59-4.86-.02.14,1.14,1.87,1.42,2.95.28,1.07.25,1.99.25,1.99,0,0-2.98-3.13-5.69-4.54-3.01-1.56-4.55-1.08-5.32-.54-.94.66-.92,1.99-.79,2.11.16.14.34-.87,1.51-.93,1.5-.07,4.61,2.65,6.46,4.61,2.74,2.93,4.21,5.31,4.48,5.32"/>
    <path class="st0" d="M72.62,131.8c-.38-.02-1.97,3.22-1.26,6.1.86,3.52,3.53,5.21,3.59,4.86.02-.14-1.14-1.87-1.43-2.94-.28-1.07-.25-1.99-.25-1.99,0,0,2.98,3.13,5.69,4.54,3,1.56,4.55,1.08,5.32.54.94-.66.92-1.99.79-2.1-.16-.14-.34.87-1.51.93-1.5.07-4.61-2.64-6.46-4.61-2.74-2.93-4.21-5.31-4.48-5.32"/>
    <rect class="st2" x="64.47" y="141.71" width="30.14" height="8.43"/>
  </g>
  <g id="TITULO_TARJETA_GENERAL">
    <path class="st1" d="M193.16,90.48c-1.38,0-2.5,1.12-2.5,2.5s1.12,2.51,2.5,2.51,2.5-1.12,2.5-2.51-1.12-2.5-2.5-2.5M193.16,89.99c1.65,0,2.99,1.34,2.99,2.99s-1.34,2.99-2.99,2.99-2.98-1.34-2.98-2.99,1.34-2.99,2.98-2.99"/>
    <path class="st1" d="M192.45,92.78h.8c.18,0,.31-.02.4-.07.09-.04.16-.11.22-.19.05-.09.08-.2.08-.31,0-.18-.05-.31-.15-.41-.1-.1-.25-.15-.45-.15h-.89v1.14ZM192.08,94.69v-3.43h1.25c.26,0,.45.03.58.1.12.06.22.17.31.32.08.15.11.32.11.52,0,.25-.06.47-.2.62-.13.16-.33.26-.59.31.1.06.19.12.24.19.11.13.21.27.29.43l.49.94h-.47l-.37-.71c-.15-.28-.26-.46-.33-.56-.07-.1-.15-.16-.21-.2-.07-.03-.17-.05-.29-.05h-.43v1.52h-.37Z"/>
    <path class="st1" d="M94.82,84.07v-26.26h-7.03v23.21c-1.21.62-2.65.93-4.66.93-3.63,0-5.24-2.08-5.24-4.72v-19.42h-7.03v19.06c0,6.17,3.75,9.43,12.04,9.43,5.41,0,9.33-.99,11.93-2.23M124.91,85.73v-19.89c0-4.51-3.05-8.55-12.33-8.55-5.24,0-9.22.78-12.16,2.02v26.42h7.03v-23.67c1.33-.47,2.53-.78,4.84-.78,4.44,0,5.59,2.39,5.59,4.67v19.79h7.03ZM148.25,77.7c0-3.27-1.38-6.06-7.43-8.24-2.71-.98-4.61-2.12-4.61-4.4,0-1.97,1.55-3.68,4.43-3.68,2.19,0,4.03.89,4.95,1.55l1.73-3.68c-2.02-1.19-4.61-1.97-8.07-1.97-5.93,0-9.85,3.63-9.85,8.08,0,2.9,1.21,5.8,7.09,7.82,3.17,1.09,4.55,2.23,4.55,4.61s-1.9,3.94-4.78,3.94c-2.53,0-4.67-.77-5.82-1.6l-1.84,4.04c1.84,1.14,4.95,2.02,8.58,2.02,6.8,0,11.06-3.94,11.06-8.5M176.89,57.8h-6.57l-5.76,18.08c-.7,2.18-.87,3.99-.87,3.99h-.11s0-1.81-.63-3.99l-5.36-18.08h-7.49l10.25,27.92-4.64,10.24h7.34l13.84-38.16ZM197,77.7c0-3.27-1.38-6.06-7.43-8.24-2.71-.98-4.61-2.12-4.61-4.4,0-1.97,1.55-3.68,4.44-3.68,2.19,0,4.04.89,4.95,1.55l1.73-3.68c-2.01-1.19-4.61-1.97-8.07-1.97-5.93,0-9.85,3.63-9.85,8.08,0,2.9,1.21,5.8,7.08,7.82,3.17,1.09,4.55,2.23,4.55,4.61s-1.9,3.94-4.78,3.94c-2.53,0-4.66-.77-5.81-1.6l-1.85,4.04c1.85,1.14,4.95,2.02,8.59,2.02,6.8,0,11.06-3.94,11.06-8.5M65.25,85.73v-19.89c0-4.51-3.05-8.55-12.33-8.55-5.24,0-9.22.78-12.15,2.02v26.42h7.03v-23.67c1.33-.47,2.54-.78,4.84-.78,4.44,0,5.59,2.39,5.59,4.67v19.79h7.03Z"/>
  </g>
</svg>